<?xml version="1.0" encoding="iso-8859-1"?>
<!-- Generator: Adobe Illustrator 19.0.0, SVG Export Plug-In . SVG Version: 6.00 Build 0)  -->
<svg version="1.1" id="Layer_1" xmlns="http://www.w3.org/2000/svg" xmlns:xlink="http://www.w3.org/1999/xlink" x="0px" y="0px"
	 viewBox="0 0 490 490" style="enable-background:new 0 0 490 490;" xml:space="preserve">
<g>
	<g id="XMLID_45_">
		<g>
			<rect x="345" y="10" style="fill:#FFFFFF;" width="70" height="65"/>
			<rect x="345" y="135" style="fill:#FFFFFF;" width="70" height="60"/>
			<rect x="265" y="75" style="fill:#FFFFFF;" width="80" height="60"/>
			<rect x="265" y="195" style="fill:#FFFFFF;" width="80" height="65"/>
			<rect x="185" y="10" style="fill:#FFFFFF;" width="80" height="65"/>
			<rect x="115" y="195" style="fill:#FFFFFF;" width="70" height="65"/>
			<rect x="185" y="135" style="fill:#FFFFFF;" width="80" height="60"/>
			<rect x="115" y="75" style="fill:#FFFFFF;" width="70" height="60"/>
			<rect x="345" y="195" style="fill:#3B3F43;" width="70" height="65"/>
			<rect x="185" y="195" style="fill:#3B3F43;" width="80" height="65"/>
			<rect x="265" y="135" style="fill:#3B3F43;" width="80" height="60"/>
			<rect x="115" y="135" style="fill:#3B3F43;" width="70" height="60"/>
			<rect x="345" y="75" style="fill:#3B3F43;" width="70" height="60"/>
			<rect x="265" y="10" style="fill:#3B3F43;" width="80" height="65"/>
			<rect x="185" y="75" style="fill:#3B3F43;" width="80" height="60"/>
			<rect x="115" y="10" style="fill:#3B3F43;" width="70" height="65"/>
			<polygon style="fill:#AFB6BB;" points="115,260 115,480 75,480 75,10 115,10 115,75 115,135 115,195 			"/>
		</g>
		<path style="fill:#231F20;" d="M415,0H75c-5.523,0-10,4.477-10,10v470c0,5.522,4.477,10,10,10h40c5.523,0,10-4.478,10-10V270h290
			c5.523,0,10-4.478,10-10V10C425,4.477,420.523,0,415,0z M405,65h-50V20h50V65z M275,65V20h60v45H275z M335,85v40h-60V85H335z
			 M255,65h-60V20h60V65z M255,85v40h-60V85H255z M175,125h-50V85h50V125z M125,145h50v40h-50V145z M195,145h60v40h-60V145z
			 M255,205v45h-60v-45H255z M275,205h60v45h-60V205z M275,185v-40h60v40H275z M355,145h50v40h-50V145z M355,125V85h50v40H355z
			 M175,20v45h-50V20H175z M105,470H85V20h20V470z M125,205h50v45h-50V205z M355,250v-45h50v45H355z"/>
	</g>
</g>
<g>
</g>
<g>
</g>
<g>
</g>
<g>
</g>
<g>
</g>
<g>
</g>
<g>
</g>
<g>
</g>
<g>
</g>
<g>
</g>
<g>
</g>
<g>
</g>
<g>
</g>
<g>
</g>
<g>
</g>
</svg>
